<svg xmlns="http://www.w3.org/2000/svg" xmlns:xlink="http://www.w3.org/1999/xlink" width="1200" height="1200" viewBox="0 0 1200 1200"><g transform="translate(600 600) scale(-0.69 0.69) rotate(180) translate(-600 -600)" style="fill:#FFF200"><svg fill="#FFF200" xmlns="http://www.w3.org/2000/svg" xmlns:xlink="http://www.w3.org/1999/xlink" version="1.1" x="0px" y="0px" viewBox="0 0 100 100" enable-background="new 0 0 100 100" xml:space="preserve"><g><path d="M51.242,88.578c2.496-2.713,4.81-11.264,6.207-18.728H35.814c-0.607,3.068-2.771,13.264-5.785,18.728H51.242z"></path><path d="M51.873,5.463L28.646,35.649v48.724c2.033-5.099,3.699-12.525,4.378-16.229l-0.013-17.27l0.103-0.151l22.72-32.995"></path><rect x="36.074" y="53.518" width="21.313" height="13.276"></rect><polygon points="58.062,50.462 76.681,19.811 57.66,19.811 36.966,50.462  "></polygon><polygon points="77.607,16.752 73.183,5 54.5,5 58.222,16.752  "></polygon><path d="M26.259,91.06h26.997c0,0,0-0.905,0-2.035c2.758-4.096,3.316-7.871,3.316-7.871V95h-34.18V29.042h8.779l-3.698,4.527   h-1.215V91.06z"></path></g></svg></g></svg>