<svg height='300px' width='300px'  fill="#44CC00" xmlns="http://www.w3.org/2000/svg" xmlns:xlink="http://www.w3.org/1999/xlink" version="1.1" preserveAspectRatio="none" x="0px" y="0px" viewBox="0 0 100 100"><defs><g id="a"><path fill="#44CC00" stroke="none" d=" M 86.2 68.75 L 86.25 68.7 Q 86.6 68.4 86.9 68.1 94.4 60.6 94.4 50 94.4 39.45 86.9 31.9 79.4 24.4 68.8 24.4 L 31.15 24.4 Q 20.6 24.4 13.1 31.9 12.6 32.4 12.1 32.95 5.55 40.1 5.55 50 5.55 60.6 13.1 68.1 13.45 68.45 13.75 68.75 L 13.75 68.8 Q 21.05 75.65 31.15 75.65 L 68.8 75.65 Q 69.45 75.65 70.1 75.65 79.45 75.2 86.2 68.75 M 88.95 50 Q 88.95 56.1 85.85 60.9 84.5 63.1 82.5 65.05 81.6 65.9 80.65 66.65 74.75 71.25 66.85 71.25 L 60.1 71.3 Q 59.9 71.25 59.7 71.25 59.5 71.2 58.4 70.95 57.25 70.7 54.65 69.75 52.05 68.8 49.3 66.65 49.1 66.5 48.95 66.4 48.15 65.75 47.45 65.05 45.45 63.1 44.05 60.9 41 56.1 41 50 41 47.7 41.45 45.6 41.5 45.45 41.5 45.35 42.8 39.55 47.45 35.05 53.7 29.05 62.45 28.85 L 66.85 28.85 Q 76 28.85 82.5 35.05 88.95 41.3 88.95 50 Z"></path></g></defs><g transform="matrix( 1, 0, 0, 1, 0,0) "><use xlink:href="#a"></use></g></svg>