<?xml version="1.0" encoding="UTF-8" standalone="no"?>
<!DOCTYPE svg PUBLIC "-//W3C//DTD SVG 1.1//EN" "http://www.w3.org/Graphics/SVG/1.1/DTD/svg11.dtd">
<svg version="1.1" xmlns="http://www.w3.org/2000/svg" xmlns:xlink="http://www.w3.org/1999/xlink" preserveAspectRatio="xMidYMid meet" viewBox="0 0 1200 800" width="150" height="100"><defs><path d="M725.31 246.19C707.4 246.19 564.09 246.19 546.18 246.19C541.15 220.79 523.23 136.36 498.28 91.12C509.99 91.12 568.53 91.12 673.92 91.12C700.47 153.3 717.6 204.99 725.31 246.19Z" id="e7SfJAaKn"></path><path d="M679.14 779.31L486.83 529.37C486.83 287.31 486.83 152.83 486.83 125.94C503.66 168.16 517.45 229.64 523.08 260.31C523.07 269.85 523.03 317.51 522.97 403.31L523.82 404.56L711.94 677.76" id="chGoLoLG8"></path><path d="M724.8 381.42C724.8 381.42 724.8 381.42 724.8 381.42C724.8 315.46 724.8 278.82 724.8 271.49C724.8 271.49 724.8 271.49 724.8 271.49C618.92 271.49 560.09 271.49 548.33 271.49C548.33 271.49 548.33 271.49 548.33 271.49C548.33 337.45 548.33 374.09 548.33 381.42C548.33 381.42 548.33 381.42 548.33 381.42C654.21 381.42 713.04 381.42 724.8 381.42Z" id="cu9CGmCSz"></path><path d="M884.56 660.51L727.06 660.51L555.71 406.72L730.39 406.72L884.56 660.51Z" id="abHq9xuif"></path><path d="M855.59 783.15L700.9 783.15L731.71 685.84L892.22 685.84L855.59 783.15Z" id="awjzr3k5I"></path><path d="M690.6 70.57C690.6 70.57 690.6 78.06 690.6 87.42C713.43 121.33 718.05 152.59 718.05 152.59C718.05 144.95 718.05 106.73 718.05 37.95L435.04 37.95L435.04 584.08L507.73 584.08L477.11 546.59L467.05 546.59L467.05 70.57C601.18 70.57 675.69 70.57 690.6 70.57Z" id="c2Bl8gruQD"></path></defs><g><g><g><g><use xlink:href="#e7SfJAaKn" opacity="1" fill="#fff200" fill-opacity="1"></use><g><use xlink:href="#e7SfJAaKn" opacity="1" fill-opacity="0" stroke="#000000" stroke-width="1" stroke-opacity="0"></use></g></g><g><use xlink:href="#chGoLoLG8" opacity="1" fill="#fff200" fill-opacity="1"></use><g><use xlink:href="#chGoLoLG8" opacity="1" fill-opacity="0" stroke="#000000" stroke-width="1" stroke-opacity="0"></use></g></g><g><use xlink:href="#cu9CGmCSz" opacity="1" fill="#fff200" fill-opacity="1"></use><g><use xlink:href="#cu9CGmCSz" opacity="1" fill-opacity="0" stroke="#000000" stroke-width="1" stroke-opacity="0"></use></g></g><g><use xlink:href="#abHq9xuif" opacity="1" fill="#fff200" fill-opacity="1"></use><g><use xlink:href="#abHq9xuif" opacity="1" fill-opacity="0" stroke="#000000" stroke-width="1" stroke-opacity="0"></use></g></g><g><use xlink:href="#awjzr3k5I" opacity="1" fill="#fff200" fill-opacity="1"></use><g><use xlink:href="#awjzr3k5I" opacity="1" fill-opacity="0" stroke="#000000" stroke-width="1" stroke-opacity="0"></use></g></g><g><use xlink:href="#c2Bl8gruQD" opacity="1" fill="#fff200" fill-opacity="1"></use><g><use xlink:href="#c2Bl8gruQD" opacity="1" fill-opacity="0" stroke="#000000" stroke-width="1" stroke-opacity="0"></use></g></g></g></g></g></svg>