<svg height='300px' width='300px'  fill="#E60000" xmlns="http://www.w3.org/2000/svg" xmlns:xlink="http://www.w3.org/1999/xlink" version="1.1" preserveAspectRatio="none" x="0px" y="0px" viewBox="0 0 100 100"><defs><g id="a"><path fill="#E60000" stroke="none" d=" M 87.8 32.95 Q 87.3 32.4 86.8 31.9 79.3 24.4 68.75 24.4 L 31.1 24.4 Q 20.5 24.4 13 31.9 5.5 39.45 5.5 50 5.5 60.6 13 68.1 13.3 68.4 13.65 68.7 L 13.7 68.75 Q 20.45 75.2 29.8 75.65 30.45 75.65 31.1 75.65 L 68.75 75.65 Q 78.85 75.65 86.15 68.8 L 86.15 68.75 Q 86.45 68.45 86.8 68.1 94.35 60.6 94.35 50 94.35 40.1 87.8 32.95 M 52.45 35.05 Q 57.1 39.55 58.4 45.35 58.4 45.45 58.45 45.6 58.9 47.7 58.9 50 58.9 56.1 55.85 60.9 54.45 63.1 52.45 65.05 51.75 65.75 50.95 66.4 50.8 66.5 50.6 66.65 47.85 68.8 45.25 69.75 42.65 70.7 41.5 70.95 40.4 71.2 40.2 71.25 40 71.25 39.8 71.3 L 33.05 71.25 Q 25.15 71.25 19.25 66.65 18.3 65.9 17.4 65.05 15.4 63.1 14.05 60.9 10.95 56.1 10.95 50 10.95 41.3 17.4 35.05 23.9 28.85 33.05 28.85 L 37.45 28.85 Q 46.2 29.05 52.45 35.05 Z"></path></g></defs><g transform="matrix( 1, 0, 0, 1, 0,0) "><use xlink:href="#a"></use></g></svg>