<?xml version="1.0" encoding="UTF-8" standalone="no"?>
<!DOCTYPE svg PUBLIC "-//W3C//DTD SVG 1.1//EN" "http://www.w3.org/Graphics/SVG/1.1/DTD/svg11.dtd">
<svg version="1.1" xmlns="http://www.w3.org/2000/svg" xmlns:xlink="http://www.w3.org/1999/xlink" preserveAspectRatio="xMidYMid meet" viewBox="0 0 1200 800" width="150" height="100"><defs><path d="M737.38 560.7C719.46 560.7 576.15 560.7 558.24 560.7C553.21 586.1 535.29 670.52 510.34 715.76C522.05 715.76 580.6 715.76 685.98 715.76C712.53 653.59 729.66 601.9 737.38 560.7Z" id="b6gpeOTqI"></path><path d="M691.21 27.57L498.89 277.51C498.89 519.57 498.89 654.05 498.89 680.95C515.72 638.73 529.51 577.24 535.14 546.57C535.13 537.04 535.09 489.37 535.03 403.57L535.88 402.32L724 129.13" id="bBqFHznOV"></path><path d="M736.86 425.47C736.86 425.47 736.86 425.47 736.86 425.47C736.86 491.42 736.86 528.06 736.86 535.39C736.86 535.39 736.86 535.39 736.86 535.39C630.98 535.39 572.16 535.39 560.39 535.39C560.39 535.39 560.39 535.39 560.39 535.39C560.39 469.44 560.39 432.79 560.39 425.47C560.39 425.47 560.39 425.47 560.39 425.47C666.27 425.47 725.1 425.47 736.86 425.47Z" id="eF0Pd89zJ"></path><path d="M896.62 146.37L739.12 146.37L567.78 400.16L742.45 400.16L896.62 146.37Z" id="axQre3ZEZ"></path><path d="M867.65 23.74L712.96 23.74L743.78 121.04L904.28 121.04L867.65 23.74Z" id="ae2BGeN56"></path><path d="M702.66 736.31C702.66 736.31 702.66 728.82 702.66 719.46C725.49 685.55 730.11 654.29 730.11 654.29C730.11 661.94 730.11 700.15 730.11 768.94L447.1 768.94L447.1 222.8L519.79 222.8L489.17 260.29L479.11 260.29L479.11 736.31C613.24 736.31 687.76 736.31 702.66 736.31Z" id="a3qgQLkXta"></path></defs><g><g><g><g></g><use xlink:href="#b6gpeOTqI" opacity="1" fill="#9f9f9f" fill-opacity="1"></use><g><use xlink:href="#b6gpeOTqI" opacity="1" fill-opacity="0" stroke="#000000" stroke-width="1" stroke-opacity="0"></use></g><g><filter id="shadow3909655" x="501.34" y="551.7" width="246.04" height="174.07" filterUnits="userSpaceOnUse" primitiveUnits="userSpaceOnUse"><feFlood></feFlood><feComposite in2="SourceAlpha" operator="out"></feComposite><feGaussianBlur stdDeviation="1"></feGaussianBlur><feOffset dx="1" dy="1" result="afterOffset"></feOffset><feFlood flood-color="#000000" flood-opacity="0.5"></feFlood><feComposite in2="afterOffset" operator="in"></feComposite><feMorphology operator="dilate" radius="1"></feMorphology><feComposite in2="SourceAlpha" operator="in"></feComposite></filter><path d="M737.38 560.7C719.46 560.7 576.15 560.7 558.24 560.7C553.21 586.1 535.29 670.52 510.34 715.76C522.05 715.76 580.6 715.76 685.98 715.76C712.53 653.59 729.66 601.9 737.38 560.7Z" id="a9p2r47Unj" fill="white" fill-opacity="1" filter="url(#shadow3909655)"></path></g></g><g><g></g><use xlink:href="#bBqFHznOV" opacity="1" fill="#9f9f9f" fill-opacity="1"></use><g><use xlink:href="#bBqFHznOV" opacity="1" fill-opacity="0" stroke="#000000" stroke-width="1" stroke-opacity="0"></use></g><g><filter id="shadow16741912" x="489.89" y="18.57" width="244.12" height="672.37" filterUnits="userSpaceOnUse" primitiveUnits="userSpaceOnUse"><feFlood></feFlood><feComposite in2="SourceAlpha" operator="out"></feComposite><feGaussianBlur stdDeviation="1"></feGaussianBlur><feOffset dx="1" dy="1" result="afterOffset"></feOffset><feFlood flood-color="#000000" flood-opacity="0.5"></feFlood><feComposite in2="afterOffset" operator="in"></feComposite><feMorphology operator="dilate" radius="1"></feMorphology><feComposite in2="SourceAlpha" operator="in"></feComposite></filter><path d="M691.21 27.57L498.89 277.51C498.89 519.57 498.89 654.05 498.89 680.95C515.72 638.73 529.51 577.24 535.14 546.57C535.13 537.04 535.09 489.37 535.03 403.57L535.88 402.32L724 129.13" id="c2HVcjVTfJ" fill="none" stroke="white" filter="url(#shadow16741912)"></path></g></g><g><g></g><use xlink:href="#eF0Pd89zJ" opacity="1" fill="#9f9f9f" fill-opacity="1"></use><g><use xlink:href="#eF0Pd89zJ" opacity="1" fill-opacity="0" stroke="#000000" stroke-width="1" stroke-opacity="0"></use></g><g><filter id="shadow7966307" x="551.39" y="416.47" width="195.47" height="128.93" filterUnits="userSpaceOnUse" primitiveUnits="userSpaceOnUse"><feFlood></feFlood><feComposite in2="SourceAlpha" operator="out"></feComposite><feGaussianBlur stdDeviation="1"></feGaussianBlur><feOffset dx="1" dy="1" result="afterOffset"></feOffset><feFlood flood-color="#000000" flood-opacity="0.5"></feFlood><feComposite in2="afterOffset" operator="in"></feComposite><feMorphology operator="dilate" radius="1"></feMorphology><feComposite in2="SourceAlpha" operator="in"></feComposite></filter><path d="M736.86 425.47C736.86 425.47 736.86 425.47 736.86 425.47C736.86 491.42 736.86 528.06 736.86 535.39C736.86 535.39 736.86 535.39 736.86 535.39C630.98 535.39 572.16 535.39 560.39 535.39C560.39 535.39 560.39 535.39 560.39 535.39C560.39 469.44 560.39 432.79 560.39 425.47C560.39 425.47 560.39 425.47 560.39 425.47C666.27 425.47 725.1 425.47 736.86 425.47Z" id="atj3K6RIW" fill="white" fill-opacity="1" filter="url(#shadow7966307)"></path></g></g><g><g></g><use xlink:href="#axQre3ZEZ" opacity="1" fill="#9f9f9f" fill-opacity="1"></use><g><use xlink:href="#axQre3ZEZ" opacity="1" fill-opacity="0" stroke="#000000" stroke-width="1" stroke-opacity="0"></use></g><g><filter id="shadow84768" x="558.78" y="137.37" width="347.84" height="272.79" filterUnits="userSpaceOnUse" primitiveUnits="userSpaceOnUse"><feFlood></feFlood><feComposite in2="SourceAlpha" operator="out"></feComposite><feGaussianBlur stdDeviation="1"></feGaussianBlur><feOffset dx="1" dy="1" result="afterOffset"></feOffset><feFlood flood-color="#000000" flood-opacity="0.5"></feFlood><feComposite in2="afterOffset" operator="in"></feComposite><feMorphology operator="dilate" radius="1"></feMorphology><feComposite in2="SourceAlpha" operator="in"></feComposite></filter><path d="M896.62 146.37L739.12 146.37L567.78 400.16L742.45 400.16L896.62 146.37Z" id="c1iT6MAfMm" fill="white" fill-opacity="1" filter="url(#shadow84768)"></path></g></g><g><g></g><use xlink:href="#ae2BGeN56" opacity="1" fill="#9f9f9f" fill-opacity="1"></use><g><use xlink:href="#ae2BGeN56" opacity="1" fill-opacity="0" stroke="#000000" stroke-width="1" stroke-opacity="0"></use></g><g><filter id="shadow13763528" x="703.96" y="14.74" width="210.33" height="116.31" filterUnits="userSpaceOnUse" primitiveUnits="userSpaceOnUse"><feFlood></feFlood><feComposite in2="SourceAlpha" operator="out"></feComposite><feGaussianBlur stdDeviation="1"></feGaussianBlur><feOffset dx="1" dy="1" result="afterOffset"></feOffset><feFlood flood-color="#000000" flood-opacity="0.5"></feFlood><feComposite in2="afterOffset" operator="in"></feComposite><feMorphology operator="dilate" radius="1"></feMorphology><feComposite in2="SourceAlpha" operator="in"></feComposite></filter><path d="M867.65 23.74L712.96 23.74L743.78 121.04L904.28 121.04L867.65 23.74Z" id="b2g4hRSaXC" fill="white" fill-opacity="1" filter="url(#shadow13763528)"></path></g></g><g><g></g><use xlink:href="#a3qgQLkXta" opacity="1" fill="#9f9f9f" fill-opacity="1"></use><g><use xlink:href="#a3qgQLkXta" opacity="1" fill-opacity="0" stroke="#000000" stroke-width="1" stroke-opacity="0"></use></g><g><filter id="shadow9263214" x="438.1" y="213.8" width="302.01" height="565.13" filterUnits="userSpaceOnUse" primitiveUnits="userSpaceOnUse"><feFlood></feFlood><feComposite in2="SourceAlpha" operator="out"></feComposite><feGaussianBlur stdDeviation="1"></feGaussianBlur><feOffset dx="1" dy="1" result="afterOffset"></feOffset><feFlood flood-color="#000000" flood-opacity="0.5"></feFlood><feComposite in2="afterOffset" operator="in"></feComposite><feMorphology operator="dilate" radius="1"></feMorphology><feComposite in2="SourceAlpha" operator="in"></feComposite></filter><path d="M702.66 736.31C702.66 736.31 702.66 728.82 702.66 719.46C725.49 685.55 730.11 654.29 730.11 654.29C730.11 661.94 730.11 700.15 730.11 768.94L447.1 768.94L447.1 222.8L519.79 222.8L489.17 260.29L479.11 260.29L479.11 736.31C613.24 736.31 687.76 736.31 702.66 736.31Z" id="a2838Yyuxr" fill="white" fill-opacity="1" filter="url(#shadow9263214)"></path></g></g></g></g></svg>